# xmcd
#
# Track frame offsets:
#	150
#	16800
#	33627
#	50215
#	68652
#	82810
#	99470
#	116312
#	132710
#	147502
#	164440
#	182115
#	198582
#	216070
#	236255
#	251027
#	265572
#
# Disc length: 3732 seconds
#
# Revision: 1
# Processed by: cddbd v1.5.2PL0 Copyright (c) Steve Scherf et al.
# Submitted via: EasyCDDAExtractor 7.0.3.1
#
DISCID=f10e9211
DTITLE=Dave Sheriff - Western Dance UK
DYEAR=1900
DGENRE=Country
TTITLE0=A 1 Blues
TTITLE1=Best of friends
TTITLE2=Cajun Strut 
TTITLE3=Dancing Boots
TTITLE4=All Dressed Up
TTITLE5=Here We Are
TTITLE6=I Love You Too
TTITLE7=The Game Of Life 
TTITLE8=Waltz Of A Lifetime
TTITLE9=Me and My Baby
TTITLE10=More Than One Heart
TTITLE11=The Sun Don't Shine On Me
TTITLE12=Wish You Were Here
TTITLE13=Go, Johnny, Go
TTITLE14=Where There's A Will
TTITLE15=Western Express
TTITLE16=Western Express Instrumental
EXTD=
EXTT0=
EXTT1=
EXTT2=
EXTT3=
EXTT4=
EXTT5=
EXTT6=
EXTT7=
EXTT8=
EXTT9=
EXTT10=
EXTT11=
EXTT12=
EXTT13=
EXTT14=
EXTT15=
EXTT16=
PLAYORDER=
